<svg width="256" height="256" viewBox="0 0 256 256" fill="none" xmlns="http://www.w3.org/2000/svg">
<rect width="256" height="256" fill="#091318"/>
<path fill-rule="evenodd" clip-rule="evenodd" d="M41.187 77.4624L31.3178 114.295C29.0918 122.602 32.1903 127.907 34.9639 132.817L93.3568 236.189L175.161 187.928L116.769 84.5555C113.966 79.5936 110.769 74.1752 102.897 72.066L66.751 62.3807C55.6662 59.4106 44.2135 66.1671 41.187 77.4624ZM58.5266 93.0743C59.2537 90.3608 61.0089 88.0419 63.406 86.6277C65.803 85.2135 68.6457 84.8199 71.3086 85.5334C73.9715 86.247 76.2365 88.0092 77.6054 90.4324C78.9742 92.8557 79.3348 95.7415 78.6077 98.455C77.8806 101.168 76.1255 103.487 73.7284 104.902C71.3313 106.316 68.4887 106.709 65.8257 105.996C63.1628 105.282 60.8978 103.52 59.529 101.097C58.1601 98.6736 57.7996 95.7878 58.5266 93.0743Z" fill="#FF8000"/>
<path fill-rule="evenodd" clip-rule="evenodd" d="M62.4829 64.3558L72.3521 101.188C74.5781 109.496 79.9136 112.54 84.7708 115.406L187.027 175.732L233.741 93.0345L131.485 32.7078C126.577 29.8121 121.099 26.7182 113.227 28.8274L77.0811 38.5127C65.9963 41.4829 59.4563 53.0606 62.4829 64.3558ZM85.3054 69.2063C84.5783 66.4928 84.9389 63.607 86.3077 61.1837C87.6766 58.7605 89.9416 56.9983 92.6045 56.2847C95.2674 55.5712 98.1101 55.9648 100.507 57.379C102.904 58.7932 104.659 61.1121 105.386 63.8256C106.114 66.5391 105.753 69.4249 104.384 71.8481C103.015 74.2714 100.75 76.0336 98.0874 76.7471C95.4245 77.4606 92.5818 77.067 90.1847 75.6528C87.7876 74.2387 86.0325 71.9198 85.3054 69.2063Z" fill="#40BCF4"/>
<path fill-rule="evenodd" clip-rule="evenodd" d="M40 62.2105V105.789C40 115.619 45.0013 120.558 49.5263 125.158L144.789 222L221 144.526L125.737 47.6842C121.164 43.0358 116.02 38 106.684 38H63.8158C50.6695 38 40 48.8463 40 62.2105ZM63.8158 74.3158C63.8158 71.1053 65.0704 68.0263 67.3036 65.7561C69.5367 63.4859 72.5655 62.2105 75.7237 62.2105C78.8819 62.2105 81.9106 63.4859 84.1438 65.7561C86.377 68.0263 87.6316 71.1053 87.6316 74.3158C87.6316 77.5263 86.377 80.6053 84.1438 82.8755C81.9106 85.1457 78.8819 86.4211 75.7237 86.4211C72.5655 86.4211 69.5367 85.1457 67.3036 82.8755C65.0704 80.6053 63.8158 77.5263 63.8158 74.3158Z" fill="#00E054"/>
<path d="M74.5 93C84.165 93 92 85.165 92 75.5C92 65.835 84.165 58 74.5 58C64.835 58 57 65.835 57 75.5C57 85.165 64.835 93 74.5 93Z" fill="#091318"/>
</svg>
